<svg xmlns="http://www.w3.org/2000/svg" xmlns:xlink="http://www.w3.org/1999/xlink" width="500" zoomAndPan="magnify" viewBox="0 0 375 374.999991" height="500" preserveAspectRatio="xMidYMid meet" version="1.0"><defs><clipPath id="e656502698"><path d="M 199 91.589844 L 258.261719 91.589844 L 258.261719 141.515625 L 199 141.515625 Z M 199 91.589844 " clip-rule="nonzero"/></clipPath><clipPath id="bae6c53bc2"><path d="M 86.730469 60.117188 L 228.546875 60.117188 L 228.546875 194.367188 L 86.730469 194.367188 Z M 86.730469 60.117188 " clip-rule="nonzero"/></clipPath></defs><g clip-path="url(#e656502698)"><path fill="#000000" d="M 254.78125 95.59375 C 252.121094 92.359375 247.878906 90.484375 244.265625 93.335938 C 243.347656 94.058594 242.429688 94.785156 241.511719 95.507812 C 236.949219 99.105469 232.390625 102.707031 227.832031 106.304688 C 222.566406 110.457031 217.304688 114.613281 212.039062 118.765625 C 210.242188 120.183594 208.445312 121.601562 206.648438 123.019531 C 205.925781 123.589844 204.828125 124.179688 204.347656 125.003906 C 203.164062 127.023438 202.570312 129.636719 201.746094 131.8125 C 200.902344 134.042969 200.058594 136.277344 199.210938 138.507812 C 198.757812 139.703125 199.953125 141.371094 201.265625 141.203125 C 205.859375 140.617188 210.453125 140.027344 215.046875 139.441406 C 215.324219 139.40625 215.570312 139.328125 215.789062 139.21875 C 216.046875 139.140625 216.308594 139.011719 216.554688 138.816406 C 224.378906 132.640625 232.207031 126.464844 240.035156 120.289062 C 244.546875 116.730469 249.054688 113.171875 253.566406 109.609375 C 254.433594 108.925781 255.300781 108.242188 256.167969 107.558594 C 260.355469 104.253906 257.398438 98.773438 254.78125 95.59375 " fill-opacity="1" fill-rule="nonzero"/></g><g clip-path="url(#bae6c53bc2)"><path fill="#000000" d="M 228.273438 140.207031 C 228.273438 137.289062 223.75 137.289062 223.75 140.207031 C 223.75 144.378906 223.75 148.554688 223.75 152.726562 C 223.75 160.453125 217.519531 166.640625 209.835938 166.757812 C 204.875 166.835938 199.90625 166.757812 194.945312 166.757812 C 172.839844 166.757812 150.734375 166.757812 128.628906 166.757812 C 123.226562 166.757812 117.820312 166.757812 112.417969 166.757812 C 111.238281 166.757812 110.550781 167.648438 109.796875 168.398438 C 108.398438 169.800781 106.996094 171.199219 105.59375 172.601562 C 101.550781 176.648438 97.5 180.695312 93.457031 184.742188 C 92.722656 185.472656 91.988281 186.207031 91.253906 186.941406 C 91.253906 173.152344 91.253906 159.363281 91.253906 145.574219 C 91.253906 127.070312 91.253906 108.566406 91.253906 90.0625 C 91.253906 86.683594 91.253906 83.304688 91.253906 79.925781 C 91.253906 75.089844 92.738281 70.886719 96.546875 67.6875 C 101.320312 63.675781 108.707031 64.710938 114.527344 64.710938 C 136.234375 64.710938 157.945312 64.710938 179.652344 64.710938 C 188.230469 64.710938 196.804688 64.710938 205.378906 64.710938 C 206.855469 64.710938 208.335938 64.710938 209.8125 64.710938 C 217.273438 64.710938 223.402344 70.710938 223.742188 78.121094 C 224.074219 85.316406 223.75 92.59375 223.75 99.796875 C 223.75 102.710938 228.273438 102.710938 228.273438 99.796875 C 228.273438 95.550781 228.273438 91.304688 228.273438 87.058594 C 228.273438 82.375 228.792969 77.242188 227.304688 72.730469 C 224.859375 65.308594 217.601562 60.191406 209.820312 60.191406 C 208.394531 60.191406 206.964844 60.191406 205.535156 60.191406 C 185.222656 60.191406 164.910156 60.191406 144.597656 60.191406 C 134.648438 60.191406 124.695312 60.191406 114.746094 60.191406 C 108.488281 60.191406 101.835938 59.46875 96.136719 62.550781 C 90.226562 65.746094 86.730469 72.261719 86.730469 78.878906 C 86.730469 81.46875 86.730469 84.054688 86.730469 86.644531 C 86.730469 97.652344 86.730469 108.660156 86.730469 119.667969 C 86.730469 133.832031 86.730469 147.992188 86.730469 162.15625 C 86.730469 172.238281 86.730469 182.320312 86.730469 192.398438 C 86.730469 194.371094 89.195312 195.394531 90.589844 194 C 98.164062 186.425781 105.738281 178.855469 113.308594 171.28125 C 128.941406 171.28125 144.570312 171.28125 160.203125 171.28125 C 176.734375 171.28125 193.261719 171.28125 209.792969 171.28125 C 218.695312 171.28125 226.515625 164.707031 228.003906 155.925781 C 228.453125 153.257812 228.273438 150.464844 228.273438 147.769531 C 228.273438 145.25 228.273438 142.730469 228.273438 140.207031 " fill-opacity="1" fill-rule="nonzero"/></g><path fill="#000000" d="M 202.679688 86.070312 C 186.175781 86.070312 169.671875 86.070312 153.167969 86.070312 C 139.425781 86.070312 125.6875 86.070312 111.945312 86.070312 C 106.113281 86.070312 106.113281 95.113281 111.945312 95.113281 C 128.449219 95.113281 144.953125 95.113281 161.460938 95.113281 C 175.199219 95.113281 188.941406 95.113281 202.679688 95.113281 C 208.515625 95.113281 208.515625 86.070312 202.679688 86.070312 " fill-opacity="1" fill-rule="nonzero"/><path fill="#000000" d="M 189.597656 136.691406 C 172.046875 136.691406 154.492188 136.691406 136.941406 136.691406 C 128.609375 136.691406 120.277344 136.691406 111.945312 136.691406 C 106.113281 136.691406 106.113281 145.738281 111.945312 145.738281 C 129.5 145.738281 147.050781 145.738281 164.601562 145.738281 C 172.933594 145.738281 181.265625 145.738281 189.597656 145.738281 C 195.433594 145.738281 195.433594 136.691406 189.597656 136.691406 " fill-opacity="1" fill-rule="nonzero"/><path fill="#000000" d="M 189.597656 112.054688 C 172.046875 112.054688 154.492188 112.054688 136.941406 112.054688 C 128.609375 112.054688 120.277344 112.054688 111.945312 112.054688 C 106.113281 112.054688 106.113281 121.097656 111.945312 121.097656 C 129.5 121.097656 147.050781 121.097656 164.601562 121.097656 C 172.933594 121.097656 181.265625 121.097656 189.597656 121.097656 C 195.433594 121.097656 195.433594 112.054688 189.597656 112.054688 " fill-opacity="1" fill-rule="nonzero"/></svg>