<svg xmlns="http://www.w3.org/2000/svg" xmlns:xlink="http://www.w3.org/1999/xlink" width="500" zoomAndPan="magnify" viewBox="0 0 375 374.999991" height="500" preserveAspectRatio="xMidYMid meet" version="1.0"><defs><clipPath id="17e026f5c4"><path d="M 41 28 L 262 28 L 262 292 L 41 292 Z M 41 28 " clip-rule="nonzero"/></clipPath><clipPath id="bd34c150dc"><path d="M 37.5 80.914062 L 182.285156 24.875 L 265.398438 239.597656 L 120.617188 295.640625 Z M 37.5 80.914062 " clip-rule="nonzero"/></clipPath><clipPath id="2ca4448f35"><path d="M 37.5 80.914062 L 182.285156 24.875 L 265.398438 239.597656 L 120.617188 295.640625 Z M 37.5 80.914062 " clip-rule="nonzero"/></clipPath><clipPath id="6c1f08a3fa"><path d="M 37.5 80.914062 L 182.285156 24.875 L 265.398438 239.597656 L 120.617188 295.640625 Z M 37.5 80.914062 " clip-rule="nonzero"/></clipPath><clipPath id="05f383f939"><path d="M 41 28 L 223 28 L 223 152 L 41 152 Z M 41 28 " clip-rule="nonzero"/></clipPath><clipPath id="06f40cabb1"><path d="M 37.5 80.914062 L 182.285156 24.875 L 265.398438 239.597656 L 120.617188 295.640625 Z M 37.5 80.914062 " clip-rule="nonzero"/></clipPath><clipPath id="89f8f2849e"><path d="M 37.5 80.914062 L 182.285156 24.875 L 265.398438 239.597656 L 120.617188 295.640625 Z M 37.5 80.914062 " clip-rule="nonzero"/></clipPath><clipPath id="f207b6321d"><path d="M 37.5 80.914062 L 182.285156 24.875 L 265.398438 239.597656 L 120.617188 295.640625 Z M 37.5 80.914062 " clip-rule="nonzero"/></clipPath></defs><g clip-path="url(#17e026f5c4)"><g clip-path="url(#bd34c150dc)"><g clip-path="url(#2ca4448f35)"><g clip-path="url(#6c1f08a3fa)"><path fill="#e8d01e" d="M 252.652344 244.523438 L 133.355469 290.699219 C 126.371094 293.402344 118.519531 289.9375 115.816406 282.957031 L 42.488281 93.511719 C 39.785156 86.53125 43.257812 78.683594 50.242188 75.980469 L 169.539062 29.800781 C 176.523438 27.097656 184.375 30.566406 187.078125 37.542969 L 260.40625 226.988281 C 263.109375 233.96875 259.636719 241.820312 252.652344 244.523438 Z M 252.652344 244.523438 " fill-opacity="1" fill-rule="nonzero"/></g></g></g></g><g clip-path="url(#05f383f939)"><g clip-path="url(#06f40cabb1)"><g clip-path="url(#89f8f2849e)"><g clip-path="url(#f207b6321d)"><path fill="#ffffff" d="M 222.21875 128.328125 L 187.078125 37.542969 C 184.375 30.566406 176.585938 27.074219 169.675781 29.75 L 50.105469 76.03125 C 43.199219 78.707031 39.785156 86.53125 42.488281 93.511719 L 62.480469 145.15625 C 117.9375 157.378906 171.386719 153.421875 222.21875 128.328125 Z M 222.21875 128.328125 " fill-opacity="0.13" fill-rule="nonzero"/></g></g></g></g></svg>