<svg xmlns="http://www.w3.org/2000/svg" xmlns:xlink="http://www.w3.org/1999/xlink" width="500" zoomAndPan="magnify" viewBox="0 0 375 374.999991" height="500" preserveAspectRatio="xMidYMid meet" version="1.0"><defs><clipPath id="28480c97ec"><path d="M 118.945312 131 L 138 131 L 138 169 L 118.945312 169 Z M 118.945312 131 " clip-rule="nonzero"/></clipPath><clipPath id="8a9d75d627"><path d="M 249 131 L 268.195312 131 L 268.195312 169 L 249 169 Z M 249 131 " clip-rule="nonzero"/></clipPath><clipPath id="d43a184dd2"><path d="M 186 81.960938 L 201 81.960938 L 201 96 L 186 96 Z M 186 81.960938 " clip-rule="nonzero"/></clipPath><clipPath id="fed12f9bfe"><path d="M 184 184 L 208 184 L 208 203.460938 L 184 203.460938 Z M 184 184 " clip-rule="nonzero"/></clipPath></defs><path fill="#bd9bc7" d="M 214.753906 149.726562 C 212.171875 149.726562 210.078125 147.636719 210.078125 145.054688 C 210.078125 142.472656 212.171875 140.378906 214.753906 140.378906 C 217.332031 140.378906 219.425781 142.472656 219.425781 145.054688 C 219.425781 147.636719 217.332031 149.726562 214.753906 149.726562 Z M 193.722656 164.890625 C 187.269531 164.890625 182.039062 160.707031 182.039062 155.542969 L 205.40625 155.542969 C 205.40625 160.707031 200.175781 164.890625 193.722656 164.890625 Z M 172.691406 149.726562 C 170.109375 149.726562 168.015625 147.636719 168.015625 145.054688 C 168.015625 142.472656 170.109375 140.378906 172.691406 140.378906 C 175.273438 140.378906 177.363281 142.472656 177.363281 145.054688 C 177.363281 147.636719 175.273438 149.726562 172.691406 149.726562 Z M 212.414062 121.6875 L 175.027344 121.6875 C 167.285156 121.6875 160.273438 124.824219 155.199219 129.898438 C 150.125 134.972656 146.988281 141.984375 146.988281 149.726562 C 146.988281 165.214844 159.539062 177.769531 175.027344 177.769531 L 212.414062 177.769531 C 220.160156 177.769531 227.167969 174.628906 232.242188 169.554688 C 237.320312 164.480469 240.457031 157.472656 240.457031 149.726562 C 240.457031 134.242188 227.902344 121.6875 212.414062 121.6875 " fill-opacity="1" fill-rule="nonzero"/><path fill="#bd9bc7" d="M 193.722656 196.464844 L 179.703125 196.464844 C 173.394531 196.464844 167.273438 195.226562 161.507812 192.789062 C 155.945312 190.433594 150.945312 187.066406 146.652344 182.773438 C 142.363281 178.484375 138.992188 173.484375 136.640625 167.921875 C 134.203125 162.15625 132.964844 156.035156 132.964844 149.726562 C 132.964844 143.417969 134.203125 137.300781 136.640625 131.535156 C 138.992188 125.96875 142.363281 120.972656 146.652344 116.679688 C 150.945312 112.390625 155.945312 109.019531 161.507812 106.667969 C 167.273438 104.226562 173.394531 102.992188 179.703125 102.992188 L 207.742188 102.992188 C 214.050781 102.992188 220.171875 104.226562 225.933594 106.667969 C 231.5 109.019531 236.496094 112.390625 240.789062 116.679688 C 245.082031 120.972656 248.449219 125.96875 250.804688 131.535156 C 253.242188 137.300781 254.476562 143.417969 254.476562 149.726562 L 249.804688 149.726562 C 249.804688 126.535156 230.933594 107.667969 207.742188 107.667969 L 179.703125 107.667969 C 156.507812 107.667969 137.640625 126.535156 137.640625 149.726562 C 137.640625 172.921875 156.507812 191.789062 179.703125 191.789062 L 193.722656 191.789062 L 193.722656 196.464844 " fill-opacity="1" fill-rule="nonzero"/><g clip-path="url(#28480c97ec)"><path fill="#bd9bc7" d="M 137.640625 168.421875 C 127.316406 168.421875 118.945312 160.050781 118.945312 149.726562 C 118.945312 139.402344 127.316406 131.035156 137.640625 131.035156 L 137.640625 168.421875 " fill-opacity="1" fill-rule="nonzero"/></g><g clip-path="url(#8a9d75d627)"><path fill="#bd9bc7" d="M 249.804688 168.421875 C 260.128906 168.421875 268.5 160.050781 268.5 149.726562 C 268.5 139.402344 260.128906 131.035156 249.804688 131.035156 L 249.804688 168.421875 " fill-opacity="1" fill-rule="nonzero"/></g><path fill="#bd9bc7" d="M 205.40625 124.023438 C 205.40625 129.183594 200.175781 133.371094 193.722656 133.371094 C 187.269531 133.371094 182.039062 129.183594 182.039062 124.023438 C 182.039062 118.863281 187.269531 114.675781 193.722656 114.675781 C 200.175781 114.675781 205.40625 118.863281 205.40625 124.023438 " fill-opacity="1" fill-rule="nonzero"/><g clip-path="url(#d43a184dd2)"><path fill="#bd9bc7" d="M 200.730469 88.972656 C 200.730469 92.84375 197.59375 95.980469 193.722656 95.980469 C 189.851562 95.980469 186.710938 92.84375 186.710938 88.972656 C 186.710938 85.101562 189.851562 81.960938 193.722656 81.960938 C 197.59375 81.960938 200.730469 85.101562 200.730469 88.972656 " fill-opacity="1" fill-rule="nonzero"/></g><g clip-path="url(#fed12f9bfe)"><path fill="#bd9bc7" d="M 207.742188 194.125 C 207.742188 199.289062 202.511719 203.472656 196.058594 203.472656 C 189.605469 203.472656 184.375 199.289062 184.375 194.125 C 184.375 188.964844 189.605469 184.78125 196.058594 184.78125 C 202.511719 184.78125 207.742188 188.964844 207.742188 194.125 " fill-opacity="1" fill-rule="nonzero"/></g><path fill="#bd9bc7" d="M 196.058594 131.132812 L 191.386719 131.132812 L 191.386719 88.972656 L 196.058594 88.972656 L 196.058594 131.132812 " fill-opacity="1" fill-rule="nonzero"/></svg>