<svg xmlns="http://www.w3.org/2000/svg" xmlns:xlink="http://www.w3.org/1999/xlink" width="500" zoomAndPan="magnify" viewBox="0 0 375 374.999991" height="500" preserveAspectRatio="xMidYMid meet" version="1.0"><defs><clipPath id="350c05d5ba"><path d="M 54.164062 31.375 L 191 31.375 L 191 226 L 54.164062 226 Z M 54.164062 31.375 " clip-rule="nonzero"/></clipPath><clipPath id="c5473401b2"><path d="M 79.671875 117 L 303.15625 117 L 303.15625 337.34375 L 79.671875 337.34375 Z M 79.671875 117 " clip-rule="nonzero"/></clipPath></defs><g clip-path="url(#350c05d5ba)"><path fill="#f2f2f0" d="M 176.546875 225.378906 L 68.386719 225.378906 C 60.53125 225.378906 54.164062 219.019531 54.164062 211.175781 L 54.164062 45.621094 C 54.164062 37.773438 60.53125 31.414062 68.386719 31.414062 L 176.546875 31.414062 C 184.402344 31.414062 190.773438 37.773438 190.773438 45.621094 L 190.773438 211.175781 C 190.773438 219.019531 184.402344 225.378906 176.546875 225.378906 " fill-opacity="1" fill-rule="nonzero"/></g><path fill="#f1484d" d="M 168.984375 214.640625 L 75.949219 214.640625 C 69.0625 214.640625 63.484375 209.066406 63.484375 202.191406 L 63.484375 54.601562 C 63.484375 47.726562 69.0625 42.152344 75.949219 42.152344 L 168.984375 42.152344 C 175.871094 42.152344 181.453125 47.726562 181.453125 54.601562 L 181.453125 202.191406 C 181.453125 209.066406 175.871094 214.640625 168.984375 214.640625 " fill-opacity="1" fill-rule="nonzero"/><path fill="#f2f2f0" d="M 185.742188 258.683594 L 80.085938 235.59375 C 72.410156 233.914062 67.550781 226.34375 69.230469 218.679688 L 104.679688 56.953125 C 106.359375 49.289062 113.941406 44.433594 121.617188 46.113281 L 227.273438 69.203125 C 234.949219 70.878906 239.8125 78.453125 238.128906 86.113281 L 202.679688 247.84375 C 201 255.507812 193.417969 260.359375 185.742188 258.683594 " fill-opacity="1" fill-rule="nonzero"/><path fill="#72d1e5" d="M 180.65625 246.578125 L 89.769531 226.71875 C 83.046875 225.246094 78.785156 218.609375 80.257812 211.894531 L 111.859375 67.71875 C 113.332031 61 119.976562 56.746094 126.703125 58.21875 L 217.589844 78.078125 C 224.316406 79.550781 228.574219 86.183594 227.101562 92.898438 L 195.5 237.078125 C 194.027344 243.792969 187.382812 248.046875 180.65625 246.578125 " fill-opacity="1" fill-rule="nonzero"/><path fill="#f2f2f0" d="M 176.90625 298.191406 L 84.296875 242.40625 C 77.570312 238.351562 75.40625 229.621094 79.464844 222.90625 L 165.113281 81.148438 C 169.171875 74.429688 177.914062 72.269531 184.640625 76.320312 L 277.253906 132.105469 C 283.980469 136.160156 286.144531 144.890625 282.085938 151.609375 L 196.4375 293.367188 C 192.378906 300.082031 183.632812 302.242188 176.90625 298.191406 " fill-opacity="1" fill-rule="nonzero"/><path fill="#734eac" d="M 175.988281 285.097656 L 96.324219 237.109375 C 90.429688 233.558594 88.535156 225.90625 92.089844 220.019531 L 168.445312 93.644531 C 172.003906 87.757812 179.664062 85.867188 185.558594 89.417969 L 265.222656 137.402344 C 271.117188 140.953125 273.015625 148.605469 269.457031 154.492188 L 193.101562 280.867188 C 189.546875 286.753906 181.882812 288.644531 175.988281 285.097656 " fill-opacity="1" fill-rule="nonzero"/><g clip-path="url(#c5473401b2)"><path fill="#f2f2f0" d="M 157.367188 332.835938 L 83.535156 253.917969 C 78.171875 248.1875 78.476562 239.195312 84.21875 233.839844 L 205.386719 120.828125 C 211.128906 115.472656 220.128906 115.78125 225.492188 121.511719 L 299.324219 200.433594 C 304.6875 206.164062 304.382812 215.152344 298.640625 220.507812 L 177.472656 333.519531 C 171.730469 338.878906 162.730469 338.570312 157.367188 332.835938 " fill-opacity="1" fill-rule="nonzero"/></g><path fill="#b2dc34" d="M 160.066406 319.992188 L 96.554688 252.105469 C 91.855469 247.082031 92.125 239.203125 97.15625 234.511719 L 205.175781 133.761719 C 210.207031 129.070312 218.09375 129.335938 222.792969 134.359375 L 286.304688 202.246094 C 291.003906 207.269531 290.734375 215.148438 285.703125 219.839844 L 177.683594 320.589844 C 172.652344 325.28125 164.765625 325.015625 160.066406 319.992188 " fill-opacity="1" fill-rule="nonzero"/></svg>