<svg xmlns="http://www.w3.org/2000/svg" width="48" height="48" id="watch"><g transform="translate(0 -1004.362)"><circle cx="24" cy="1028.362" r="24" fill="#fcd062"></circle><g transform="translate(-1432.858 42.75)"><path fill="#f05542" d="M1452.866 979.017c.77-3.487 4.137-4.732 7.992-4.155-.458 1.71 1.15 2.196 2 1 4 1 7-3 7-3 0 2-1.155 4.394-3 6 1 0 3-.156 4-1-.257 2.32-1 5.989-3 5.989s-2 2 0 2c-.598 7.136-4.12 8.743-6.629 8.482"></path><circle cx="16" cy="14" r="9" fill="#e9eded" transform="translate(1436.47 974.084) scale(1.05556)"></circle><circle cx="16" cy="16" r="1" fill="#25b39e" transform="translate(1437.358 972.862)"></circle><path fill="none" stroke="#25b39e" d="m1457.358 984.862-4 4h-6"></path><path fill="none" stroke="#25b39e" d="M1455.358 984.862h2v2m-9.086 3.42-1.414-1.415 1.414-1.414"></path></g></g></svg>