<svg xmlns="http://www.w3.org/2000/svg" xmlns:xlink="http://www.w3.org/1999/xlink" width="500" zoomAndPan="magnify" viewBox="0 0 375 374.999991" height="500" preserveAspectRatio="xMidYMid meet" version="1.0"><defs><clipPath id="e27a0beb9d"><path d="M 161.316406 127 L 337.339844 127 L 337.339844 304.132812 L 161.316406 304.132812 Z M 161.316406 127 " clip-rule="nonzero"/></clipPath><clipPath id="5ecc53e12a"><path d="M 249.359375 127.105469 C 297.949219 127.105469 337.339844 164.03125 337.339844 212.644531 C 337.339844 238.800781 326.914062 260.65625 310.191406 275.734375 C 308.152344 277.574219 306.964844 280.179688 306.964844 282.929688 L 306.964844 297.035156 C 306.964844 302.214844 301.605469 305.644531 296.914062 303.46875 L 281.832031 296.476562 C 278.75 295.046875 275.289062 294.761719 271.984375 295.550781 C 264.765625 297.277344 257.1875 298.1875 249.359375 298.1875 C 194.230469 298.1875 161.382812 259.890625 161.382812 212.644531 C 161.382812 163.246094 200.773438 127.105469 249.359375 127.105469 Z M 249.359375 127.105469 " clip-rule="nonzero"/></clipPath><clipPath id="7121a347f6"><path d="M 249.359375 127.105469 C 297.949219 127.105469 337.339844 164.03125 337.339844 212.644531 C 337.339844 238.800781 326.914062 260.65625 310.191406 275.734375 C 308.152344 277.574219 306.964844 280.179688 306.964844 282.929688 L 306.964844 297.035156 C 306.964844 302.214844 301.605469 305.644531 296.914062 303.46875 L 281.832031 296.476562 C 278.75 295.046875 275.289062 294.761719 271.984375 295.550781 C 264.765625 297.277344 257.1875 298.1875 249.359375 298.1875 C 194.230469 298.1875 161.382812 259.890625 161.382812 212.644531 C 161.382812 163.246094 200.773438 127.105469 249.359375 127.105469 " clip-rule="nonzero"/></clipPath><clipPath id="7d9aa2c897"><path d="M 254.992188 392.085938 L 425.515625 209.953125 L 243.730469 39.148438 L 73.207031 221.28125 Z M 254.992188 392.085938 " clip-rule="nonzero"/></clipPath><linearGradient x1="0.0676482" gradientTransform="matrix(-182.621536, -171.587996, 171.283166, -182.946526, 353.619836, 311.546778)" y1="0" x2="1.06307" gradientUnits="userSpaceOnUse" y2="0" id="dc9ff0f3b6"><stop stop-opacity="1" stop-color="rgb(10.198975%, 10.198975%, 10.198975%)" offset="0"/><stop stop-opacity="1" stop-color="rgb(10.198975%, 10.198975%, 10.198975%)" offset="0.0625"/><stop stop-opacity="1" stop-color="rgb(10.292053%, 10.292053%, 10.292053%)" offset="0.0703125"/><stop stop-opacity="1" stop-color="rgb(10.488892%, 10.488892%, 10.488892%)" offset="0.078125"/><stop stop-opacity="1" stop-color="rgb(10.78949%, 10.78949%, 10.78949%)" offset="0.09375"/><stop stop-opacity="1" stop-color="rgb(11.088562%, 11.088562%, 11.088562%)" offset="0.101563"/><stop stop-opacity="1" stop-color="rgb(11.296082%, 11.296082%, 11.296082%)" offset="0.109375"/><stop stop-opacity="1" stop-color="rgb(11.59668%, 11.59668%, 11.59668%)" offset="0.125"/><stop stop-opacity="1" stop-color="rgb(11.987305%, 11.987305%, 11.987305%)" offset="0.140625"/><stop stop-opacity="1" stop-color="rgb(12.190247%, 12.190247%, 12.190247%)" offset="0.15625"/><stop stop-opacity="1" stop-color="rgb(12.345886%, 12.345886%, 12.345886%)" offset="0.171875"/><stop stop-opacity="1" stop-color="rgb(12.686157%, 12.686157%, 12.686157%)" offset="0.1875"/><stop stop-opacity="1" stop-color="rgb(12.983704%, 12.983704%, 12.983704%)" offset="0.195313"/><stop stop-opacity="1" stop-color="rgb(13.191223%, 13.191223%, 13.191223%)" offset="0.203125"/><stop stop-opacity="1" stop-color="rgb(13.392639%, 13.392639%, 13.392639%)" offset="0.210938"/><stop stop-opacity="1" stop-color="rgb(13.589478%, 13.589478%, 13.589478%)" offset="0.21875"/><stop stop-opacity="1" stop-color="rgb(13.694763%, 13.694763%, 13.694763%)" offset="0.234375"/><stop stop-opacity="1" stop-color="rgb(13.897705%, 13.897705%, 13.897705%)" offset="0.25"/><stop stop-opacity="1" stop-color="rgb(14.28833%, 14.28833%, 14.28833%)" offset="0.265625"/><stop stop-opacity="1" stop-color="rgb(14.491272%, 14.491272%, 14.491272%)" offset="0.28125"/><stop stop-opacity="1" stop-color="rgb(14.596558%, 14.596558%, 14.596558%)" offset="0.289062"/><stop stop-opacity="1" stop-color="rgb(14.793396%, 14.793396%, 14.793396%)" offset="0.296875"/><stop stop-opacity="1" stop-color="rgb(15.086365%, 15.086365%, 15.086365%)" offset="0.3125"/><stop stop-opacity="1" stop-color="rgb(15.383911%, 15.383911%, 15.383911%)" offset="0.320312"/><stop stop-opacity="1" stop-color="rgb(15.591431%, 15.591431%, 15.591431%)" offset="0.328125"/><stop stop-opacity="1" stop-color="rgb(15.698242%, 15.698242%, 15.698242%)" offset="0.34375"/><stop stop-opacity="1" stop-color="rgb(15.797424%, 15.797424%, 15.797424%)" offset="0.351562"/><stop stop-opacity="1" stop-color="rgb(15.99884%, 15.99884%, 15.99884%)" offset="0.359375"/><stop stop-opacity="1" stop-color="rgb(16.299438%, 16.299438%, 16.299438%)" offset="0.375"/><stop stop-opacity="1" stop-color="rgb(16.496277%, 16.496277%, 16.496277%)" offset="0.390625"/><stop stop-opacity="1" stop-color="rgb(16.595459%, 16.595459%, 16.595459%)" offset="0.398438"/><stop stop-opacity="1" stop-color="rgb(16.795349%, 16.795349%, 16.795349%)" offset="0.40625"/><stop stop-opacity="1" stop-color="rgb(17.089844%, 17.089844%, 17.089844%)" offset="0.4375"/><stop stop-opacity="1" stop-color="rgb(17.440796%, 17.440796%, 17.440796%)" offset="0.46875"/><stop stop-opacity="1" stop-color="rgb(17.697144%, 17.697144%, 17.697144%)" offset="0.476562"/><stop stop-opacity="1" stop-color="rgb(17.897034%, 17.897034%, 17.897034%)" offset="0.484375"/><stop stop-opacity="1" stop-color="rgb(17.999268%, 17.999268%, 17.999268%)" offset="0.5"/><stop stop-opacity="1" stop-color="rgb(18.09845%, 18.09845%, 18.09845%)" offset="0.515625"/><stop stop-opacity="1" stop-color="rgb(18.299866%, 18.299866%, 18.299866%)" offset="0.53125"/><stop stop-opacity="1" stop-color="rgb(18.595886%, 18.595886%, 18.595886%)" offset="0.5625"/><stop stop-opacity="1" stop-color="rgb(18.891907%, 18.891907%, 18.891907%)" offset="0.578125"/><stop stop-opacity="1" stop-color="rgb(19.093323%, 19.093323%, 19.093323%)" offset="0.59375"/><stop stop-opacity="1" stop-color="rgb(19.294739%, 19.294739%, 19.294739%)" offset="0.609375"/><stop stop-opacity="1" stop-color="rgb(19.497681%, 19.497681%, 19.497681%)" offset="0.625"/><stop stop-opacity="1" stop-color="rgb(19.599915%, 19.599915%, 19.599915%)" offset="0.65625"/><stop stop-opacity="1" stop-color="rgb(19.796753%, 19.796753%, 19.796753%)" offset="0.6875"/><stop stop-opacity="1" stop-color="rgb(19.995117%, 19.995117%, 19.995117%)" offset="0.75"/><stop stop-opacity="1" stop-color="rgb(19.999695%, 19.999695%, 19.999695%)" offset="1"/></linearGradient><clipPath id="2a96e5f444"><path d="M 38.851562 71.164062 L 215 71.164062 L 215 248.238281 L 38.851562 248.238281 Z M 38.851562 71.164062 " clip-rule="nonzero"/></clipPath><clipPath id="2e7421446c"><path d="M 126.828125 71.160156 C 78.242188 71.160156 38.851562 108.089844 38.851562 156.703125 C 38.851562 182.863281 49.277344 204.714844 65.996094 219.792969 C 68.039062 221.632812 69.226562 224.234375 69.226562 226.988281 L 69.226562 241.097656 C 69.226562 246.273438 74.585938 249.703125 79.273438 247.53125 L 94.359375 240.535156 C 97.4375 239.109375 100.902344 238.820312 104.203125 239.609375 C 111.425781 241.335938 119.003906 242.25 126.828125 242.25 C 181.960938 242.25 214.804688 203.949219 214.804688 156.703125 C 214.804688 107.308594 175.417969 71.160156 126.828125 71.160156 Z M 126.828125 71.160156 " clip-rule="nonzero"/></clipPath><clipPath id="8eee071384"><path d="M 126.828125 71.160156 C 78.242188 71.160156 38.851562 108.089844 38.851562 156.703125 C 38.851562 182.863281 49.277344 204.714844 65.996094 219.792969 C 68.039062 221.632812 69.226562 224.234375 69.226562 226.988281 L 69.226562 241.097656 C 69.226562 246.273438 74.585938 249.703125 79.273438 247.53125 L 94.359375 240.535156 C 97.4375 239.109375 100.902344 238.820312 104.203125 239.609375 C 111.425781 241.335938 119.003906 242.25 126.828125 242.25 C 181.960938 242.25 214.804688 203.949219 214.804688 156.703125 C 214.804688 107.308594 175.417969 71.160156 126.828125 71.160156 " clip-rule="nonzero"/></clipPath><clipPath id="7b1223a831"><path d="M 302.160156 142.804688 L 109.457031 -15.234375 L -48.507812 178.0625 L 144.199219 336.101562 Z M 302.160156 142.804688 " clip-rule="nonzero"/></clipPath><linearGradient x1="-0.0793868" gradientTransform="matrix(-132.662228, 162.335338, -162.046963, -132.898312, 193.94217, 75.578888)" y1="0" x2="1.105918" gradientUnits="userSpaceOnUse" y2="0" id="297e0461ed"><stop stop-opacity="1" stop-color="rgb(100%, 86.299133%, 18.798828%)" offset="0"/><stop stop-opacity="1" stop-color="rgb(100%, 86.299133%, 18.606567%)" offset="0.25"/><stop stop-opacity="1" stop-color="rgb(100%, 86.120605%, 18.229675%)" offset="0.265625"/><stop stop-opacity="1" stop-color="rgb(100%, 85.920715%, 18.02063%)" offset="0.28125"/><stop stop-opacity="1" stop-color="rgb(100%, 85.899353%, 17.819214%)" offset="0.296875"/><stop stop-opacity="1" stop-color="rgb(100%, 85.899353%, 17.619324%)" offset="0.3125"/><stop stop-opacity="1" stop-color="rgb(100%, 85.719299%, 17.463684%)" offset="0.328125"/><stop stop-opacity="1" stop-color="rgb(100%, 85.519409%, 17.138672%)" offset="0.34375"/><stop stop-opacity="1" stop-color="rgb(100%, 85.499573%, 16.845703%)" offset="0.351562"/><stop stop-opacity="1" stop-color="rgb(100%, 85.499573%, 16.639709%)" offset="0.359375"/><stop stop-opacity="1" stop-color="rgb(100%, 85.418701%, 16.436768%)" offset="0.367188"/><stop stop-opacity="1" stop-color="rgb(100%, 85.241699%, 16.241455%)" offset="0.375"/><stop stop-opacity="1" stop-color="rgb(100%, 85.121155%, 16.120911%)" offset="0.390625"/><stop stop-opacity="1" stop-color="rgb(100%, 85.099792%, 15.921021%)" offset="0.40625"/><stop stop-opacity="1" stop-color="rgb(100%, 85.023499%, 15.644836%)" offset="0.414062"/><stop stop-opacity="1" stop-color="rgb(100%, 84.849548%, 15.449524%)" offset="0.421875"/><stop stop-opacity="1" stop-color="rgb(100%, 84.724426%, 15.156555%)" offset="0.4375"/><stop stop-opacity="1" stop-color="rgb(100%, 84.628296%, 14.860535%)" offset="0.445312"/><stop stop-opacity="1" stop-color="rgb(100%, 84.455872%, 14.656067%)" offset="0.453125"/><stop stop-opacity="1" stop-color="rgb(100%, 84.324646%, 14.379883%)" offset="0.460937"/><stop stop-opacity="1" stop-color="rgb(100%, 84.298706%, 14.154053%)" offset="0.46875"/><stop stop-opacity="1" stop-color="rgb(100%, 84.298706%, 13.964844%)" offset="0.476562"/><stop stop-opacity="1" stop-color="rgb(100%, 84.152222%, 13.764954%)" offset="0.484375"/><stop stop-opacity="1" stop-color="rgb(100%, 83.952332%, 13.551331%)" offset="0.492187"/><stop stop-opacity="1" stop-color="rgb(100%, 83.898926%, 13.35144%)" offset="0.5"/><stop stop-opacity="1" stop-color="rgb(100%, 83.898926%, 13.162231%)" offset="0.507812"/><stop stop-opacity="1" stop-color="rgb(100%, 83.898926%, 12.962341%)" offset="0.515625"/><stop stop-opacity="1" stop-color="rgb(100%, 83.753967%, 12.754822%)" offset="0.523438"/><stop stop-opacity="1" stop-color="rgb(100%, 83.554077%, 12.445068%)" offset="0.53125"/><stop stop-opacity="1" stop-color="rgb(100%, 83.499146%, 12.104797%)" offset="0.546875"/><stop stop-opacity="1" stop-color="rgb(100%, 83.369446%, 11.863708%)" offset="0.554688"/><stop stop-opacity="1" stop-color="rgb(100%, 83.169556%, 11.6745%)" offset="0.5625"/><stop stop-opacity="1" stop-color="rgb(100%, 83.099365%, 11.474609%)" offset="0.570312"/><stop stop-opacity="1" stop-color="rgb(100%, 83.099365%, 11.260986%)" offset="0.578125"/><stop stop-opacity="1" stop-color="rgb(100%, 82.966614%, 10.928345%)" offset="0.585938"/><stop stop-opacity="1" stop-color="rgb(100%, 82.766724%, 10.665894%)" offset="0.59375"/><stop stop-opacity="1" stop-color="rgb(100%, 82.699585%, 10.476685%)" offset="0.601562"/><stop stop-opacity="1" stop-color="rgb(100%, 82.699585%, 10.276794%)" offset="0.609375"/><stop stop-opacity="1" stop-color="rgb(100%, 82.597351%, 10.063171%)" offset="0.617188"/><stop stop-opacity="1" stop-color="rgb(100%, 82.446289%, 9.863281%)" offset="0.625"/><stop stop-opacity="1" stop-color="rgb(100%, 82.398987%, 9.674072%)" offset="0.632812"/><stop stop-opacity="1" stop-color="rgb(100%, 82.398987%, 9.355164%)" offset="0.640625"/><stop stop-opacity="1" stop-color="rgb(100%, 82.269287%, 9.080505%)" offset="0.648438"/><stop stop-opacity="1" stop-color="rgb(100%, 82.069397%, 8.865356%)" offset="0.65625"/><stop stop-opacity="1" stop-color="rgb(100%, 81.999207%, 8.537292%)" offset="0.664062"/><stop stop-opacity="1" stop-color="rgb(100%, 81.999207%, 8.270264%)" offset="0.671875"/><stop stop-opacity="1" stop-color="rgb(100%, 81.881714%, 8.081055%)" offset="0.679688"/><stop stop-opacity="1" stop-color="rgb(100%, 81.681824%, 7.881165%)" offset="0.6875"/><stop stop-opacity="1" stop-color="rgb(100%, 81.599426%, 7.707214%)" offset="0.695312"/><stop stop-opacity="1" stop-color="rgb(100%, 81.599426%, 7.432556%)" offset="0.703125"/><stop stop-opacity="1" stop-color="rgb(100%, 81.478882%, 7.173157%)" offset="0.710938"/><stop stop-opacity="1" stop-color="rgb(100%, 81.278992%, 6.983948%)" offset="0.71875"/><stop stop-opacity="1" stop-color="rgb(100%, 81.199646%, 6.674194%)" offset="0.726562"/><stop stop-opacity="1" stop-color="rgb(100%, 81.199646%, 6.388855%)" offset="0.734375"/><stop stop-opacity="1" stop-color="rgb(100%, 81.07605%, 6.175232%)" offset="0.742188"/><stop stop-opacity="1" stop-color="rgb(100%, 80.87616%, 5.857849%)" offset="0.75"/><stop stop-opacity="1" stop-color="rgb(100%, 80.691528%, 5.474854%)" offset="0.765625"/><stop stop-opacity="1" stop-color="rgb(100%, 80.491638%, 5.076599%)" offset="0.769531"/><stop stop-opacity="1" stop-color="rgb(100%, 80.39856%, 4.867554%)" offset="0.773437"/><stop stop-opacity="1" stop-color="rgb(100%, 80.39856%, 4.78363%)" offset="0.78125"/><stop stop-opacity="1" stop-color="rgb(100%, 80.39856%, 4.58374%)" offset="0.789062"/><stop stop-opacity="1" stop-color="rgb(100%, 80.288696%, 4.272461%)" offset="0.796875"/><stop stop-opacity="1" stop-color="rgb(100%, 80.088806%, 3.889465%)" offset="0.8125"/><stop stop-opacity="1" stop-color="rgb(100%, 79.891968%, 3.492737%)" offset="0.816406"/><stop stop-opacity="1" stop-color="rgb(100%, 79.785156%, 3.285217%)" offset="0.820312"/><stop stop-opacity="1" stop-color="rgb(100%, 79.692078%, 3.192139%)" offset="0.828125"/><stop stop-opacity="1" stop-color="rgb(100%, 79.598999%, 2.990723%)" offset="0.835937"/><stop stop-opacity="1" stop-color="rgb(100%, 79.598999%, 2.714539%)" offset="0.84375"/><stop stop-opacity="1" stop-color="rgb(100%, 79.501343%, 2.374268%)" offset="0.851562"/><stop stop-opacity="1" stop-color="rgb(100%, 79.301453%, 2.101135%)" offset="0.859375"/><stop stop-opacity="1" stop-color="rgb(100%, 79.199219%, 1.887512%)" offset="0.867187"/><stop stop-opacity="1" stop-color="rgb(100%, 79.093933%, 1.582336%)" offset="0.875"/><stop stop-opacity="1" stop-color="rgb(100%, 78.894043%, 1.199341%)" offset="0.890625"/><stop stop-opacity="1" stop-color="rgb(100%, 78.697205%, 0.802612%)" offset="0.894531"/><stop stop-opacity="1" stop-color="rgb(100%, 78.594971%, 0.595093%)" offset="0.898437"/><stop stop-opacity="1" stop-color="rgb(100%, 78.497314%, 0.387573%)" offset="0.902344"/><stop stop-opacity="1" stop-color="rgb(100%, 78.399658%, 0.18158%)" offset="0.90625"/><stop stop-opacity="1" stop-color="rgb(100%, 78.399658%, 0.0900269%)" offset="0.9375"/><stop stop-opacity="1" stop-color="rgb(100%, 78.399658%, 0%)" offset="1"/></linearGradient></defs><g clip-path="url(#e27a0beb9d)"><g clip-path="url(#5ecc53e12a)"><g clip-path="url(#7121a347f6)"><g clip-path="url(#7d9aa2c897)"><path fill="url(#dc9ff0f3b6)" d="M 254.992188 392.085938 L 425.515625 209.953125 L 243.730469 39.148438 L 73.207031 221.285156 Z M 254.992188 392.085938 " fill-rule="nonzero"/></g></g></g></g><path fill="#ffffff" d="M 249.359375 218.816406 C 243.941406 212.296875 239.558594 205.09375 237.417969 196.898438 L 261.304688 196.898438 C 259.164062 205.09375 254.78125 212.296875 249.359375 218.816406 Z M 276.789062 187.09375 L 254.253906 187.09375 L 254.253906 183.082031 C 254.253906 180.375 252.066406 178.179688 249.359375 178.179688 C 246.660156 178.179688 244.46875 180.375 244.46875 183.082031 L 244.46875 187.09375 L 221.933594 187.09375 C 219.230469 187.09375 217.039062 189.289062 217.039062 191.996094 C 217.039062 194.703125 219.230469 196.898438 221.933594 196.898438 L 227.390625 196.898438 C 229.515625 207.964844 235.378906 217.542969 242.710938 226.0625 C 238.140625 230.632812 233.238281 234.882812 228.527344 238.9375 C 223.75 243.054688 230.695312 249.949219 235.441406 245.859375 C 240.066406 241.878906 244.839844 237.671875 249.359375 233.175781 C 253.878906 237.671875 258.65625 241.878906 263.28125 245.859375 C 268.027344 249.949219 274.972656 243.054688 270.195312 238.9375 C 265.484375 234.882812 260.585938 230.632812 256.011719 226.0625 C 263.34375 217.542969 269.207031 207.964844 271.332031 196.898438 L 276.789062 196.898438 C 279.492188 196.898438 281.683594 194.703125 281.683594 191.996094 C 281.683594 189.289062 279.492188 187.09375 276.789062 187.09375 " fill-opacity="1" fill-rule="nonzero"/><g clip-path="url(#2a96e5f444)"><g clip-path="url(#2e7421446c)"><g clip-path="url(#8eee071384)"><g clip-path="url(#7b1223a831)"><path fill="url(#297e0461ed)" d="M 301.445312 142.21875 L 109.457031 -15.234375 L -47.789062 177.183594 L 144.199219 334.636719 Z M 301.445312 142.21875 " fill-rule="nonzero"/></g></g></g></g><path fill="#ffffff" d="M 115.378906 167.53125 L 125.675781 137.503906 C 126.050781 136.40625 127.601562 136.40625 127.980469 137.503906 L 138.277344 167.53125 Z M 155.859375 186.878906 L 132.738281 124.058594 C 131.828125 121.578125 129.46875 119.929688 126.828125 119.929688 C 124.1875 119.929688 121.828125 121.578125 120.914062 124.058594 L 97.800781 186.878906 C 96.621094 190.082031 98.988281 193.480469 102.394531 193.480469 L 102.980469 193.480469 C 105.074219 193.480469 106.933594 192.152344 107.613281 190.167969 L 112.035156 177.289062 C 112.265625 177.320312 141.621094 177.339844 141.644531 177.339844 L 146.042969 190.167969 C 146.722656 192.152344 148.582031 193.480469 150.671875 193.480469 L 151.261719 193.480469 C 154.671875 193.480469 157.035156 190.082031 155.859375 186.878906 " fill-opacity="1" fill-rule="nonzero"/></svg>