<svg xmlns="http://www.w3.org/2000/svg" enable-background="new 0 0 64 64" viewBox="0 0 64 64" id="gold-medal"><polygon fill="#596d7c" points="25.93 64 20.51 57.73 12.28 58.7 20.74 36.9 34.39 42.19"></polygon><polygon fill="#596d7c" points="38.07 64 43.49 57.73 51.72 58.7 43.26 36.9 29.61 42.19"></polygon><path fill="#617586" d="M55.04,23.04c0,1.96-2.55,3.56-3.03,5.36c-0.5,1.87,0.9,4.52-0.05,6.16c-0.96,1.66-3.97,1.77-5.31,3.12
				c-1.35,1.35-1.46,4.35-3.12,5.31c-1.64,0.95-4.29-0.45-6.16,0.05c-1.81,0.48-3.4,3.03-5.36,3.03s-3.56-2.55-5.36-3.03
				c-1.87-0.5-4.52,0.9-6.16-0.05c-1.66-0.96-1.77-3.97-3.12-5.31c-1.35-1.35-4.35-1.46-5.31-3.12c-0.95-1.64,0.45-4.29-0.05-6.16
				c-0.48-1.81-3.03-3.4-3.03-5.36c0-1.96,2.55-3.56,3.03-5.36c0.5-1.87-0.9-4.52,0.05-6.16C13,9.86,16.01,9.74,17.36,8.4
				c1.35-1.35,1.46-4.35,3.12-5.31c1.64-0.95,4.29,0.45,6.16-0.05C28.44,2.55,30.04,0,32,0s3.56,2.55,5.36,3.03
				c1.87,0.5,4.52-0.9,6.16,0.05c1.66,0.96,1.77,3.97,3.12,5.31c1.35,1.35,4.35,1.46,5.31,3.12c0.95,1.64-0.45,4.29,0.05,6.16
				C52.49,19.48,55.04,21.08,55.04,23.04z"></path><circle cx="32" cy="23.04" r="15.39" fill="#fff" transform="rotate(-76.809 31.999 23.041)"></circle><polygon fill="#ffc42e" points="32 12.1 34.46 19.66 42.41 19.66 35.98 24.33 38.43 31.89 32 27.22 25.57 31.89 28.02 24.33 21.59 19.66 29.54 19.66"></polygon></svg>