<svg xmlns="http://www.w3.org/2000/svg" xmlns:xlink="http://www.w3.org/1999/xlink" width="500" zoomAndPan="magnify" viewBox="0 0 375 374.999991" height="500" preserveAspectRatio="xMidYMid meet" version="1.0"><defs><clipPath id="8a08314d77"><path d="M 41 41 L 291 41 L 291 315 L 41 315 Z M 41 41 " clip-rule="nonzero"/></clipPath><clipPath id="ea92c181d6"><path d="M 37.503906 119.726562 L 177.941406 37.484375 L 294.296875 236.167969 L 153.859375 318.414062 Z M 37.503906 119.726562 " clip-rule="nonzero"/></clipPath><clipPath id="e2c6c9a17a"><path d="M 37.503906 119.726562 L 177.941406 37.484375 L 294.296875 236.167969 L 153.859375 318.414062 Z M 37.503906 119.726562 " clip-rule="nonzero"/></clipPath><clipPath id="4655d85bdc"><path d="M 48 48 L 283 48 L 283 308 L 48 308 Z M 48 48 " clip-rule="nonzero"/></clipPath><clipPath id="7bc3b14a52"><path d="M 37.503906 119.726562 L 177.941406 37.484375 L 294.296875 236.167969 L 153.859375 318.414062 Z M 37.503906 119.726562 " clip-rule="nonzero"/></clipPath><clipPath id="9ef6f2ce1f"><path d="M 37.503906 119.726562 L 177.941406 37.484375 L 294.296875 236.167969 L 153.859375 318.414062 Z M 37.503906 119.726562 " clip-rule="nonzero"/></clipPath><clipPath id="a41e05b086"><path d="M 55 55 L 209 55 L 209 237 L 55 237 Z M 55 55 " clip-rule="nonzero"/></clipPath><clipPath id="08fb69ba88"><path d="M 37.503906 119.726562 L 177.941406 37.484375 L 294.296875 236.167969 L 153.859375 318.414062 Z M 37.503906 119.726562 " clip-rule="nonzero"/></clipPath><clipPath id="6b877087fc"><path d="M 37.503906 119.726562 L 177.941406 37.484375 L 294.296875 236.167969 L 153.859375 318.414062 Z M 37.503906 119.726562 " clip-rule="nonzero"/></clipPath><clipPath id="6137f6e34f"><path d="M 123 120 L 225 120 L 225 265 L 123 265 Z M 123 120 " clip-rule="nonzero"/></clipPath><clipPath id="0cfd3dee33"><path d="M 37.503906 119.726562 L 177.941406 37.484375 L 294.296875 236.167969 L 153.859375 318.414062 Z M 37.503906 119.726562 " clip-rule="nonzero"/></clipPath><clipPath id="7d11ae8835"><path d="M 37.503906 119.726562 L 177.941406 37.484375 L 294.296875 236.167969 L 153.859375 318.414062 Z M 37.503906 119.726562 " clip-rule="nonzero"/></clipPath><clipPath id="8202bb451b"><path d="M 139 147 L 236 147 L 236 284 L 139 284 Z M 139 147 " clip-rule="nonzero"/></clipPath><clipPath id="d8f5336c98"><path d="M 37.503906 119.726562 L 177.941406 37.484375 L 294.296875 236.167969 L 153.859375 318.414062 Z M 37.503906 119.726562 " clip-rule="nonzero"/></clipPath><clipPath id="fde645100e"><path d="M 37.503906 119.726562 L 177.941406 37.484375 L 294.296875 236.167969 L 153.859375 318.414062 Z M 37.503906 119.726562 " clip-rule="nonzero"/></clipPath></defs><g clip-path="url(#8a08314d77)"><g clip-path="url(#ea92c181d6)"><g clip-path="url(#e2c6c9a17a)"><path fill="#86181c" d="M 288.507812 226.714844 C 291.640625 232.0625 289.84375 238.941406 284.496094 242.074219 L 163.722656 312.800781 C 158.371094 315.933594 151.492188 314.136719 148.363281 308.785156 L 43.28125 129.355469 C 40.148438 124.003906 41.945312 117.125 47.292969 113.992188 L 168.066406 43.265625 C 173.417969 40.132812 180.296875 41.929688 183.429688 47.28125 L 288.507812 226.714844 " fill-opacity="1" fill-rule="nonzero"/></g></g></g><g clip-path="url(#4655d85bdc)"><g clip-path="url(#7bc3b14a52)"><g clip-path="url(#9ef6f2ce1f)"><path fill="#ff3131" d="M 281.453125 225.074219 C 284.382812 230.078125 282.703125 236.507812 277.699219 239.4375 L 164.75 305.585938 C 159.746094 308.515625 153.3125 306.835938 150.382812 301.832031 L 50.042969 130.488281 C 47.113281 125.488281 48.792969 119.054688 53.796875 116.125 L 166.746094 49.980469 C 171.75 47.046875 178.179688 48.730469 181.109375 53.730469 L 281.453125 225.074219 " fill-opacity="1" fill-rule="nonzero"/></g></g></g><g clip-path="url(#a41e05b086)"><g clip-path="url(#08fb69ba88)"><g clip-path="url(#6b877087fc)"><path fill="#f14560" d="M 117.261719 236.5625 L 56.40625 132.644531 C 53.648438 127.929688 55.230469 121.871094 59.945312 119.109375 L 166.34375 56.800781 C 171.054688 54.039062 177.117188 55.625 179.875 60.335938 L 208.179688 108.667969 L 117.261719 236.5625 " fill-opacity="1" fill-rule="nonzero"/></g></g></g><g clip-path="url(#6137f6e34f)"><g clip-path="url(#0cfd3dee33)"><g clip-path="url(#7d11ae8835)"><path fill="#f14560" d="M 133.539062 264.351562 L 224.457031 136.460938 L 214.859375 120.070312 L 123.941406 247.964844 L 133.539062 264.351562 " fill-opacity="1" fill-rule="nonzero"/></g></g></g><g clip-path="url(#8202bb451b)"><g clip-path="url(#d8f5336c98)"><g clip-path="url(#fde645100e)"><path fill="#f14560" d="M 144.710938 283.433594 L 235.628906 155.542969 L 230.761719 147.226562 L 139.84375 275.117188 L 144.710938 283.433594 " fill-opacity="1" fill-rule="nonzero"/></g></g></g></svg>